<svg width="96" height="22" viewBox="0 0 96 22" fill="none" xmlns="http://www.w3.org/2000/svg">
<path d="M23 20.8234C23 16.9793 18.0698 13.8702 12 13.8702C5.93015 13.8702 1 16.9793 1 20.8234M12 10.8902C13.6981 10.8902 15.3267 10.367 16.5275 9.43554C17.7282 8.50412 18.4028 7.24085 18.4028 5.92363C18.4028 4.6064 17.7282 3.34313 16.5275 2.41171C15.3267 1.4803 13.6981 0.957031 12 0.957031C10.3019 0.957031 8.6733 1.4803 7.47254 2.41171C6.27178 3.34313 5.59721 4.6064 5.59721 5.92363C5.59721 7.24085 6.27178 8.50412 7.47254 9.43554C8.6733 10.367 10.3019 10.8902 12 10.8902Z" stroke="#000907" stroke-width="1.5" stroke-linecap="round" stroke-linejoin="round"/>
<path d="M73 0.957031H74.9583C76.1737 0.957031 77.1304 1.88082 77.0291 2.94367L76.095 12.8371C76.0585 13.2204 76.1126 13.6062 76.2539 13.9701C76.3952 14.3339 76.6206 14.6679 76.9158 14.9508C77.211 15.2338 77.5695 15.4595 77.9688 15.6138C78.368 15.768 78.7991 15.8474 79.2349 15.8469H91.2209C92.8415 15.8469 94.2596 14.6748 94.3834 13.2543L94.9911 5.80443C95.1262 4.15552 93.7081 2.81454 91.8286 2.81454H77.2992M80.8781 6.91695H94.3834M89.0375 20.8234C89.4106 20.8234 89.7685 20.6926 90.0323 20.4597C90.2961 20.2269 90.4443 19.9111 90.4443 19.5818C90.4443 19.2525 90.2961 18.9366 90.0323 18.7038C89.7685 18.4709 89.4106 18.3401 89.0375 18.3401C88.6644 18.3401 88.3066 18.4709 88.0428 18.7038C87.7789 18.9366 87.6307 19.2525 87.6307 19.5818C87.6307 19.9111 87.7789 20.2269 88.0428 20.4597C88.3066 20.6926 88.6644 20.8234 89.0375 20.8234ZM80.034 20.8234C80.4071 20.8234 80.7649 20.6926 81.0288 20.4597C81.2926 20.2269 81.4408 19.9111 81.4408 19.5818C81.4408 19.2525 81.2926 18.9366 81.0288 18.7038C80.7649 18.4709 80.4071 18.3401 80.034 18.3401C79.6609 18.3401 79.3031 18.4709 79.0392 18.7038C78.7754 18.9366 78.6272 19.2525 78.6272 19.5818C78.6272 19.9111 78.7754 20.2269 79.0392 20.4597C79.3031 20.6926 79.6609 20.8234 80.034 20.8234Z" stroke="#000907" stroke-width="1.5" stroke-miterlimit="10" stroke-linecap="round" stroke-linejoin="round"/>
</svg>
