<svg width="16" height="17" viewBox="0 0 16 17" fill="none" xmlns="http://www.w3.org/2000/svg">
<path d="M8.1816 15.544C9.45962 15.5418 10.3905 15.5253 10.9743 15.4945C11.603 15.4615 12.1488 15.3678 12.6121 15.2133C13.1636 15.0147 13.6433 14.7115 14.0514 14.3034C14.4595 13.8953 14.7629 13.4155 14.9614 12.864C15.1157 12.4008 15.2096 11.8548 15.2426 11.2262C15.2757 10.5975 15.2923 9.56626 15.2923 8.13247L15.2915 7.54291C15.2889 6.41388 15.2781 5.5847 15.2591 5.05529C15.215 4.41557 15.1158 3.86404 14.9614 3.4008C14.7628 2.84936 14.4595 2.36955 14.0514 1.96155C13.6433 1.55346 13.1635 1.25011 12.6121 1.05162C12.1488 0.897174 11.6029 0.803433 10.9743 0.770303C10.3455 0.737268 9.3143 0.720703 7.88051 0.720703L7.57934 0.720985C6.3015 0.72315 5.37058 0.739527 4.78687 0.770303C4.15816 0.803433 3.61228 0.897174 3.14894 1.05162C2.5975 1.25011 2.11769 1.55346 1.70969 1.96155C1.3016 2.36955 0.998256 2.84936 0.799762 3.4008C0.645221 3.86404 0.551479 4.41011 0.51835 5.03882C0.485315 5.66743 0.46875 6.69859 0.46875 8.13237L0.469032 8.43355C0.471197 9.71157 0.487668 10.6425 0.51835 11.2262C0.551479 11.8549 0.645221 12.4008 0.799668 12.864C0.998162 13.4156 1.3015 13.8953 1.7096 14.3034C2.1176 14.7115 2.59741 15.0037 3.14884 15.1802C3.61209 15.3567 4.15807 15.4615 4.78677 15.4945C5.41548 15.5277 6.44663 15.5442 7.88042 15.5442L8.1816 15.544ZM8.7032 14.2203H7.06433C6.3192 14.2181 5.73096 14.2071 5.29962 14.1876C4.48343 14.1434 3.88786 14.0552 3.51289 13.9229C2.85106 13.6582 2.37689 13.184 2.09011 12.5001C1.95769 12.1251 1.8695 11.5295 1.82536 10.7134C1.80334 10.228 1.79223 9.54423 1.79223 8.66188L1.7927 7.31628C1.79487 6.57115 1.80579 5.98291 1.82536 5.55157C1.8695 4.71336 1.95769 4.11779 2.09011 3.76484C2.35477 3.08099 2.82903 2.60673 3.51289 2.34207C3.88786 2.20964 4.48343 2.12146 5.29962 2.07731C5.78489 2.05529 6.46875 2.04419 7.3511 2.04419L8.6967 2.04466C9.44174 2.04682 10.03 2.05774 10.4614 2.07731C11.2996 2.12146 11.8952 2.20964 12.2481 2.34207C12.932 2.60673 13.4063 3.08099 13.6709 3.76484C13.8032 4.11779 13.8915 4.71336 13.9357 5.55157C13.9577 6.01482 13.9687 6.69859 13.9687 7.60306L13.9683 8.94866C13.9662 9.69369 13.9552 10.2819 13.9357 10.7134C13.8914 11.5295 13.8032 12.1251 13.6709 12.5001C13.4063 13.1618 12.932 13.6361 12.2481 13.9229C11.8952 14.0552 11.2996 14.1435 10.4614 14.1876C9.99816 14.2096 9.3143 14.2207 8.40993 14.2207L8.7032 14.2203ZM11.8511 5.05529C12.0937 5.05529 12.2977 4.96701 12.4632 4.79054C12.6287 4.61407 12.7224 4.40456 12.7444 4.16183C12.7444 3.9192 12.6562 3.70969 12.4798 3.53313C12.3033 3.35675 12.0937 3.26847 11.8511 3.26847C11.6084 3.26847 11.3989 3.35675 11.2224 3.53322C11.046 3.70969 10.9577 3.9192 10.9577 4.16193C10.9577 4.40456 11.046 4.61407 11.2224 4.79063C11.3989 4.96701 11.6083 5.05529 11.8511 5.05529ZM7.88051 11.9376C8.56428 11.9376 9.19854 11.7666 9.7831 11.4247C10.3676 11.0828 10.8308 10.6196 11.1728 10.0351C11.5147 9.45049 11.6857 8.81623 11.6857 8.13247C11.6857 7.44861 11.5147 6.81444 11.1728 6.22988C10.8308 5.64541 10.3677 5.18207 9.7831 4.84014C9.19854 4.4983 8.56428 4.32729 7.88051 4.32729C7.19666 4.32729 6.56249 4.4983 5.97793 4.84023C5.39346 5.18207 4.93011 5.64531 4.58819 6.22988C4.24635 6.81435 4.07534 7.4487 4.07534 8.13247C4.07534 8.81623 4.24635 9.45049 4.58828 10.0351C4.93011 10.6195 5.39336 11.0828 5.97793 11.4247C6.5624 11.7666 7.19675 11.9376 7.88051 11.9376ZM7.88051 10.6141C7.19666 10.6141 6.61209 10.3714 6.12682 9.88616C5.64155 9.4008 5.39891 8.81623 5.39891 8.13247C5.39891 7.44861 5.64155 6.86404 6.12682 6.37877C6.61209 5.8935 7.19666 5.65087 7.88051 5.65087C8.56428 5.65087 9.14884 5.8935 9.63421 6.37877C10.1195 6.86404 10.3621 7.44861 10.3621 8.13247C10.3621 8.81623 10.1195 9.4008 9.63421 9.88616C9.14884 10.3714 8.56428 10.6141 7.88051 10.6141Z" fill="#000907"/>
</svg>
