<svg width="533" height="86" viewBox="0 0 533 86" fill="none" xmlns="http://www.w3.org/2000/svg">
<path d="M3.76 2.6V23.3H16.72V26H0.88V2.6H3.76ZM32.9121 20.204H35.6121C35.4201 21.38 34.9881 22.436 34.3161 23.372C33.6681 24.284 32.8041 25.016 31.7241 25.568C30.6681 26.096 29.4441 26.36 28.0521 26.36C26.3721 26.36 24.8601 25.964 23.5161 25.172C22.1721 24.356 21.1041 23.252 20.3121 21.86C19.5441 20.444 19.1601 18.836 19.1601 17.036C19.1601 15.236 19.5321 13.628 20.2761 12.212C21.0441 10.796 22.0881 9.68 23.4081 8.864C24.7281 8.048 26.2161 7.64 27.8721 7.64C29.6241 7.64 31.1001 8.036 32.3001 8.828C33.5241 9.596 34.4241 10.736 35.0001 12.248C35.6001 13.736 35.8401 15.572 35.7201 17.756H22.0401C22.1601 18.932 22.4841 19.964 23.0121 20.852C23.5401 21.74 24.2361 22.436 25.1001 22.94C25.9641 23.42 26.9481 23.66 28.0521 23.66C29.2761 23.66 30.3081 23.348 31.1481 22.724C32.0121 22.076 32.6001 21.236 32.9121 20.204ZM27.9801 10.34C26.4921 10.34 25.2441 10.772 24.2361 11.636C23.2281 12.5 22.5561 13.676 22.2201 15.164H32.7681C32.6721 13.58 32.1561 12.38 31.2201 11.564C30.3081 10.748 29.2281 10.34 27.9801 10.34ZM46.2378 26.36C44.8218 26.36 43.5138 25.964 42.3138 25.172C41.1378 24.356 40.1898 23.252 39.4697 21.86C38.7738 20.444 38.4258 18.836 38.4258 17.036C38.4258 15.236 38.7858 13.628 39.5058 12.212C40.2258 10.796 41.1978 9.68 42.4218 8.864C43.6698 8.048 45.0618 7.64 46.5977 7.64C48.2778 7.64 49.5498 8.072 50.4138 8.936C51.3018 9.776 51.9018 10.904 52.2138 12.32C52.5498 13.736 52.7178 15.308 52.7178 17.036C52.7178 17.948 52.6218 18.944 52.4298 20.024C52.2378 21.08 51.9018 22.1 51.4218 23.084C50.9658 24.044 50.3178 24.836 49.4778 25.46C48.6378 26.06 47.5578 26.36 46.2378 26.36ZM46.9578 23.624C48.1818 23.624 49.1898 23.324 49.9818 22.724C50.7978 22.124 51.3978 21.332 51.7818 20.348C52.1658 19.34 52.3578 18.236 52.3578 17.036C52.3578 15.716 52.1538 14.564 51.7458 13.58C51.3618 12.572 50.7618 11.792 49.9458 11.24C49.1538 10.664 48.1578 10.376 46.9578 10.376C45.1578 10.376 43.7658 11.012 42.7818 12.284C41.7978 13.532 41.3058 15.116 41.3058 17.036C41.3058 18.308 41.5458 19.448 42.0258 20.456C42.5298 21.44 43.2018 22.22 44.0418 22.796C44.9058 23.348 45.8778 23.624 46.9578 23.624ZM52.3578 8H55.2378V26H52.6098C52.6098 26 52.5858 25.784 52.5378 25.352C52.5138 24.92 52.4778 24.416 52.4298 23.84C52.3818 23.264 52.3578 22.784 52.3578 22.4V8ZM66.8778 23.516H66.0138L71.5218 8H74.6538L67.8138 26H65.1138L58.3098 8H61.4418L66.8778 23.516ZM89.9356 20.204H92.6356C92.4436 21.38 92.0116 22.436 91.3396 23.372C90.6916 24.284 89.8276 25.016 88.7476 25.568C87.6916 26.096 86.4676 26.36 85.0756 26.36C83.3956 26.36 81.8836 25.964 80.5396 25.172C79.1956 24.356 78.1276 23.252 77.3356 21.86C76.5676 20.444 76.1836 18.836 76.1836 17.036C76.1836 15.236 76.5556 13.628 77.2996 12.212C78.0676 10.796 79.1116 9.68 80.4316 8.864C81.7516 8.048 83.2396 7.64 84.8956 7.64C86.6476 7.64 88.1236 8.036 89.3236 8.828C90.5476 9.596 91.4476 10.736 92.0236 12.248C92.6236 13.736 92.8636 15.572 92.7436 17.756H79.0636C79.1836 18.932 79.5076 19.964 80.0356 20.852C80.5636 21.74 81.2596 22.436 82.1236 22.94C82.9876 23.42 83.9716 23.66 85.0756 23.66C86.2996 23.66 87.3316 23.348 88.1716 22.724C89.0356 22.076 89.6236 21.236 89.9356 20.204ZM85.0036 10.34C83.5156 10.34 82.2676 10.772 81.2596 11.636C80.2516 12.5 79.5796 13.676 79.2436 15.164H89.7916C89.6956 13.58 89.1796 12.38 88.2436 11.564C87.3316 10.748 86.2516 10.34 85.0036 10.34ZM110.82 26.36C109.404 26.36 108.096 25.964 106.896 25.172C105.72 24.356 104.772 23.252 104.052 21.86C103.356 20.444 103.008 18.836 103.008 17.036C103.008 15.236 103.368 13.628 104.088 12.212C104.808 10.796 105.78 9.68 107.004 8.864C108.252 8.048 109.644 7.64 111.18 7.64C112.86 7.64 114.132 8.072 114.996 8.936C115.884 9.776 116.484 10.904 116.796 12.32C117.132 13.736 117.3 15.308 117.3 17.036C117.3 17.948 117.204 18.944 117.012 20.024C116.82 21.08 116.484 22.1 116.004 23.084C115.548 24.044 114.9 24.836 114.06 25.46C113.22 26.06 112.14 26.36 110.82 26.36ZM111.54 23.624C112.764 23.624 113.772 23.324 114.564 22.724C115.38 22.124 115.98 21.332 116.364 20.348C116.748 19.34 116.94 18.236 116.94 17.036C116.94 15.716 116.736 14.564 116.328 13.58C115.944 12.572 115.344 11.792 114.528 11.24C113.736 10.664 112.74 10.376 111.54 10.376C109.74 10.376 108.348 11.012 107.364 12.284C106.38 13.532 105.888 15.116 105.888 17.036C105.888 18.308 106.128 19.448 106.608 20.456C107.112 21.44 107.784 22.22 108.624 22.796C109.488 23.348 110.46 23.624 111.54 23.624ZM116.94 8H119.82V26H117.192C117.192 26 117.168 25.784 117.12 25.352C117.096 24.92 117.06 24.416 117.012 23.84C116.964 23.264 116.94 22.784 116.94 22.4V8ZM131.17 20.06H135.49C135.754 20.876 136.294 21.548 137.11 22.076C137.95 22.58 139.042 22.832 140.386 22.832C141.298 22.832 142.006 22.748 142.51 22.58C143.014 22.412 143.362 22.172 143.554 21.86C143.746 21.524 143.842 21.152 143.842 20.744C143.842 20.24 143.686 19.856 143.374 19.592C143.062 19.304 142.582 19.076 141.934 18.908C141.286 18.74 140.458 18.584 139.45 18.44C138.442 18.272 137.47 18.068 136.534 17.828C135.598 17.588 134.77 17.276 134.05 16.892C133.33 16.484 132.754 15.98 132.322 15.38C131.914 14.756 131.71 14 131.71 13.112C131.71 12.248 131.914 11.48 132.322 10.808C132.754 10.136 133.342 9.572 134.086 9.116C134.854 8.66 135.742 8.312 136.75 8.072C137.782 7.832 138.886 7.712 140.062 7.712C141.838 7.712 143.314 7.976 144.49 8.504C145.666 9.008 146.542 9.728 147.118 10.664C147.718 11.576 148.018 12.632 148.018 13.832H143.878C143.686 12.944 143.302 12.308 142.726 11.924C142.15 11.516 141.262 11.312 140.062 11.312C138.886 11.312 137.998 11.492 137.398 11.852C136.798 12.212 136.498 12.704 136.498 13.328C136.498 13.832 136.678 14.228 137.038 14.516C137.422 14.78 137.974 14.996 138.694 15.164C139.438 15.332 140.362 15.512 141.466 15.704C142.402 15.896 143.29 16.112 144.13 16.352C144.994 16.592 145.762 16.904 146.434 17.288C147.106 17.648 147.634 18.14 148.018 18.764C148.426 19.364 148.63 20.132 148.63 21.068C148.63 22.22 148.294 23.192 147.622 23.984C146.974 24.776 146.038 25.388 144.814 25.82C143.59 26.228 142.126 26.432 140.422 26.432C138.91 26.432 137.602 26.276 136.498 25.964C135.418 25.628 134.518 25.208 133.798 24.704C133.078 24.176 132.514 23.624 132.106 23.048C131.722 22.448 131.458 21.884 131.314 21.356C131.17 20.828 131.122 20.396 131.17 20.06ZM150.951 8.108H164.847V11.744H150.951V8.108ZM155.559 3.212H160.239V26H155.559V3.212ZM167.82 8.108H172.5V26H167.82V8.108ZM179.376 11.96C178.032 11.96 176.868 12.224 175.884 12.752C174.9 13.256 174.108 13.88 173.508 14.624C172.908 15.368 172.488 16.088 172.248 16.784L172.212 14.804C172.236 14.516 172.332 14.096 172.5 13.544C172.668 12.968 172.92 12.356 173.256 11.708C173.592 11.036 174.036 10.4 174.588 9.8C175.14 9.176 175.812 8.672 176.604 8.288C177.396 7.904 178.32 7.712 179.376 7.712V11.96ZM192.817 26.432C190.561 26.432 188.569 26.072 186.841 25.352C185.137 24.632 183.805 23.588 182.845 22.22C181.885 20.828 181.405 19.124 181.405 17.108C181.405 15.092 181.885 13.388 182.845 11.996C183.805 10.58 185.137 9.512 186.841 8.792C188.569 8.072 190.561 7.712 192.817 7.712C195.073 7.712 197.041 8.072 198.721 8.792C200.425 9.512 201.757 10.58 202.717 11.996C203.677 13.388 204.157 15.092 204.157 17.108C204.157 19.124 203.677 20.828 202.717 22.22C201.757 23.588 200.425 24.632 198.721 25.352C197.041 26.072 195.073 26.432 192.817 26.432ZM192.817 22.832C194.065 22.832 195.181 22.616 196.165 22.184C197.173 21.728 197.965 21.08 198.541 20.24C199.117 19.376 199.405 18.332 199.405 17.108C199.405 15.884 199.117 14.84 198.541 13.976C197.965 13.088 197.185 12.416 196.201 11.96C195.217 11.504 194.089 11.276 192.817 11.276C191.569 11.276 190.441 11.504 189.433 11.96C188.425 12.416 187.621 13.076 187.021 13.94C186.445 14.804 186.157 15.86 186.157 17.108C186.157 18.332 186.445 19.376 187.021 20.24C187.597 21.08 188.389 21.728 189.397 22.184C190.405 22.616 191.545 22.832 192.817 22.832ZM207.617 8.108H212.297V26H207.617V8.108ZM220.613 7.712C221.717 7.712 222.737 7.856 223.673 8.144C224.609 8.432 225.425 8.876 226.121 9.476C226.817 10.076 227.357 10.844 227.741 11.78C228.125 12.692 228.317 13.784 228.317 15.056V26H223.637V15.884C223.637 14.372 223.265 13.268 222.521 12.572C221.801 11.852 220.613 11.492 218.957 11.492C217.709 11.492 216.581 11.732 215.573 12.212C214.565 12.692 213.749 13.304 213.125 14.048C212.501 14.768 212.141 15.524 212.045 16.316L212.009 14.48C212.129 13.64 212.405 12.824 212.837 12.032C213.269 11.24 213.845 10.52 214.565 9.872C215.309 9.2 216.185 8.672 217.193 8.288C218.201 7.904 219.341 7.712 220.613 7.712ZM241.506 23.264C239.562 23.264 237.846 22.976 236.358 22.4C234.894 21.8 233.754 20.924 232.938 19.772C232.122 18.62 231.714 17.228 231.714 15.596C231.714 13.988 232.11 12.596 232.902 11.42C233.694 10.244 234.822 9.332 236.286 8.684C237.774 8.036 239.514 7.712 241.506 7.712C242.058 7.712 242.586 7.748 243.09 7.82C243.618 7.892 244.134 7.988 244.638 8.108L253.674 8.144V11.672C252.45 11.696 251.202 11.552 249.93 11.24C248.682 10.904 247.578 10.544 246.618 10.16L246.51 9.908C247.326 10.292 248.094 10.772 248.814 11.348C249.534 11.9 250.11 12.548 250.542 13.292C250.998 14.012 251.226 14.852 251.226 15.812C251.226 17.372 250.83 18.716 250.038 19.844C249.246 20.948 248.118 21.8 246.654 22.4C245.214 22.976 243.498 23.264 241.506 23.264ZM247.518 33.38V32.516C247.518 31.412 247.158 30.644 246.438 30.212C245.742 29.78 244.782 29.564 243.558 29.564H237.978C236.898 29.564 235.986 29.48 235.242 29.312C234.522 29.144 233.946 28.904 233.514 28.592C233.082 28.28 232.77 27.908 232.578 27.476C232.386 27.068 232.29 26.624 232.29 26.144C232.29 25.184 232.602 24.464 233.226 23.984C233.85 23.48 234.69 23.144 235.746 22.976C236.802 22.808 237.966 22.772 239.238 22.868L241.506 23.264C239.994 23.312 238.866 23.444 238.122 23.66C237.402 23.852 237.042 24.248 237.042 24.848C237.042 25.208 237.186 25.496 237.474 25.712C237.762 25.904 238.17 26 238.698 26H244.566C246.174 26 247.542 26.168 248.67 26.504C249.822 26.864 250.698 27.452 251.298 28.268C251.898 29.108 252.198 30.248 252.198 31.688V33.38H247.518ZM241.506 19.88C242.538 19.88 243.438 19.712 244.206 19.376C244.998 19.04 245.61 18.56 246.042 17.936C246.474 17.288 246.69 16.52 246.69 15.632C246.69 14.72 246.474 13.94 246.042 13.292C245.61 12.644 245.01 12.152 244.242 11.816C243.474 11.456 242.562 11.276 241.506 11.276C240.474 11.276 239.562 11.456 238.77 11.816C237.978 12.152 237.366 12.644 236.934 13.292C236.502 13.94 236.286 14.72 236.286 15.632C236.286 16.52 236.502 17.288 236.934 17.936C237.366 18.56 237.966 19.04 238.734 19.376C239.526 19.712 240.45 19.88 241.506 19.88ZM366.103 11.42V8.72H373.411V11.42H366.103ZM370.963 8.72H373.843V26H370.963V8.72ZM360.163 26V6.92H363.043V26H360.163ZM366.283 0.799998H373.843V3.68H366.283C365.683 3.656 365.131 3.74 364.627 3.932C364.147 4.124 363.763 4.46 363.475 4.94C363.187 5.396 363.043 6.056 363.043 6.92H360.163C360.163 5.48 360.415 4.316 360.919 3.428C361.447 2.516 362.167 1.856 363.079 1.448C364.015 1.016 365.083 0.799998 366.283 0.799998ZM356.959 8.72H367.543V11.42H356.959V8.72ZM378.328 8H381.208V26H378.328V8ZM386.968 10.7C385.744 10.7 384.712 11.012 383.872 11.636C383.056 12.236 382.408 12.98 381.928 13.868C381.472 14.732 381.172 15.572 381.028 16.388L380.992 14.3C380.992 14.084 381.04 13.724 381.136 13.22C381.232 12.716 381.412 12.152 381.676 11.528C381.94 10.88 382.288 10.268 382.72 9.692C383.176 9.092 383.752 8.6 384.448 8.216C385.144 7.832 385.984 7.64 386.968 7.64V10.7ZM389.347 20.204H392.011C392.083 21.236 392.467 22.076 393.163 22.724C393.883 23.372 394.915 23.696 396.259 23.696C397.075 23.696 397.711 23.588 398.167 23.372C398.647 23.156 398.995 22.868 399.211 22.508C399.427 22.124 399.535 21.704 399.535 21.248C399.535 20.696 399.391 20.264 399.103 19.952C398.839 19.616 398.467 19.34 397.987 19.124C397.531 18.908 397.003 18.704 396.403 18.512C395.707 18.248 394.987 17.972 394.243 17.684C393.523 17.372 392.839 17.012 392.191 16.604C391.567 16.172 391.063 15.656 390.679 15.056C390.295 14.432 390.103 13.688 390.103 12.824C390.103 12.104 390.247 11.432 390.535 10.808C390.823 10.16 391.231 9.608 391.759 9.152C392.311 8.672 392.947 8.3 393.667 8.036C394.411 7.772 395.227 7.64 396.115 7.64C397.315 7.64 398.323 7.88 399.139 8.36C399.979 8.84 400.615 9.524 401.047 10.412C401.503 11.276 401.743 12.284 401.767 13.436H399.283C399.115 12.356 398.767 11.576 398.239 11.096C397.735 10.592 397.003 10.34 396.043 10.34C395.059 10.34 394.303 10.556 393.775 10.988C393.247 11.42 392.983 11.996 392.983 12.716C392.983 13.244 393.175 13.688 393.559 14.048C393.943 14.384 394.435 14.696 395.035 14.984C395.659 15.248 396.319 15.524 397.015 15.812C397.711 16.1 398.383 16.388 399.031 16.676C399.679 16.964 400.255 17.3 400.759 17.684C401.263 18.068 401.659 18.548 401.947 19.124C402.259 19.676 402.415 20.372 402.415 21.212C402.415 22.22 402.175 23.12 401.695 23.912C401.239 24.68 400.555 25.28 399.643 25.712C398.755 26.144 397.663 26.36 396.367 26.36C395.191 26.36 394.183 26.216 393.343 25.928C392.527 25.616 391.843 25.22 391.291 24.74C390.739 24.236 390.307 23.708 389.995 23.156C389.707 22.604 389.515 22.064 389.419 21.536C389.323 21.008 389.299 20.564 389.347 20.204ZM404.842 8H415.426V10.7H404.842V8ZM408.694 3.32H411.574V26H408.694V3.32ZM5.524 52.26V56.364H0.0880001V52.26H5.524ZM0.448 60.108H5.128V78H0.448V60.108ZM9.79281 60.108H14.4728V78H9.79281V60.108ZM22.7888 59.712C23.8928 59.712 24.9128 59.856 25.8488 60.144C26.7848 60.432 27.6008 60.876 28.2968 61.476C28.9928 62.076 29.5328 62.844 29.9168 63.78C30.3008 64.692 30.4928 65.784 30.4928 67.056V78H25.8128V67.884C25.8128 66.372 25.4408 65.268 24.6968 64.572C23.9768 63.852 22.7888 63.492 21.1328 63.492C19.8848 63.492 18.7568 63.732 17.7488 64.212C16.7408 64.692 15.9248 65.304 15.3008 66.048C14.6768 66.768 14.3168 67.524 14.2208 68.316L14.1848 66.48C14.3048 65.64 14.5808 64.824 15.0128 64.032C15.4448 63.24 16.0208 62.52 16.7408 61.872C17.4848 61.2 18.3608 60.672 19.3688 60.288C20.3768 59.904 21.5168 59.712 22.7888 59.712ZM38.3768 59.712C39.4808 59.712 40.5008 59.856 41.4368 60.144C42.3728 60.432 43.1888 60.876 43.8848 61.476C44.5808 62.076 45.1208 62.844 45.5048 63.78C45.9128 64.692 46.1168 65.784 46.1168 67.056V78H41.4368V67.884C41.4368 66.372 41.0648 65.268 40.3208 64.572C39.5768 63.852 38.3768 63.492 36.7208 63.492C35.4728 63.492 34.3448 63.732 33.3368 64.212C32.3288 64.692 31.5128 65.304 30.8888 66.048C30.2648 66.768 29.9168 67.524 29.8448 68.316L29.7728 66.372C29.8928 65.58 30.1808 64.788 30.6368 63.996C31.0928 63.204 31.6928 62.484 32.4368 61.836C33.1808 61.188 34.0448 60.672 35.0288 60.288C36.0368 59.904 37.1528 59.712 38.3768 59.712ZM63.3951 78.432C61.8111 78.432 60.4551 78.156 59.3271 77.604C58.2231 77.028 57.3231 76.284 56.6271 75.372C55.9311 74.436 55.4151 73.416 55.0791 72.312C54.7431 71.208 54.5751 70.128 54.5751 69.072C54.5751 67.752 54.7311 66.528 55.0431 65.4C55.3791 64.272 55.8951 63.288 56.5911 62.448C57.2871 61.584 58.1871 60.912 59.2911 60.432C60.4191 59.952 61.7871 59.712 63.3951 59.712C65.1951 59.712 66.8151 60.108 68.2551 60.9C69.6951 61.692 70.8351 62.796 71.6751 64.212C72.5391 65.604 72.9711 67.224 72.9711 69.072C72.9711 70.968 72.5391 72.624 71.6751 74.04C70.8111 75.432 69.6591 76.512 68.2191 77.28C66.7791 78.048 65.1711 78.432 63.3951 78.432ZM61.8831 74.796C63.1551 74.796 64.2591 74.556 65.1951 74.076C66.1551 73.596 66.8871 72.936 67.3911 72.096C67.9191 71.232 68.1831 70.224 68.1831 69.072C68.1831 67.344 67.6311 65.952 66.5271 64.896C65.4471 63.84 63.8991 63.312 61.8831 63.312C60.6111 63.312 59.4471 63.54 58.3911 63.996C57.3591 64.452 56.5431 65.112 55.9431 65.976C55.3431 66.816 55.0431 67.848 55.0431 69.072C55.0431 70.224 55.3191 71.232 55.8711 72.096C56.4231 72.936 57.2151 73.596 58.2471 74.076C59.2791 74.556 60.4911 74.796 61.8831 74.796ZM50.3631 60.108H54.8271L55.0431 64.86V85.2H50.3631V60.108ZM76.4139 60.108H81.0939V78H76.4139V60.108ZM87.9699 63.96C86.6259 63.96 85.4619 64.224 84.4779 64.752C83.4939 65.256 82.7019 65.88 82.1019 66.624C81.5019 67.368 81.0819 68.088 80.8419 68.784L80.8059 66.804C80.8299 66.516 80.9259 66.096 81.0939 65.544C81.2619 64.968 81.5139 64.356 81.8499 63.708C82.1859 63.036 82.6299 62.4 83.1819 61.8C83.7339 61.176 84.4059 60.672 85.1979 60.288C85.9899 59.904 86.9139 59.712 87.9699 59.712V63.96ZM107.171 72.06H111.707C111.515 73.284 110.999 74.376 110.159 75.336C109.343 76.296 108.227 77.052 106.811 77.604C105.395 78.156 103.667 78.432 101.627 78.432C99.3471 78.432 97.3311 78.072 95.5791 77.352C93.8271 76.608 92.4591 75.54 91.4751 74.148C90.4911 72.756 89.9991 71.076 89.9991 69.108C89.9991 67.14 90.4791 65.46 91.4391 64.068C92.3991 62.652 93.7311 61.572 95.4351 60.828C97.1631 60.084 99.1791 59.712 101.483 59.712C103.835 59.712 105.791 60.084 107.351 60.828C108.911 61.572 110.063 62.7 110.807 64.212C111.575 65.7 111.899 67.608 111.779 69.936H94.7151C94.8351 70.848 95.1711 71.676 95.7231 72.42C96.2991 73.164 97.0671 73.752 98.0271 74.184C99.0111 74.616 100.175 74.832 101.519 74.832C103.007 74.832 104.243 74.58 105.227 74.076C106.235 73.548 106.883 72.876 107.171 72.06ZM101.267 63.276C99.5391 63.276 98.1351 63.66 97.0551 64.428C95.9751 65.172 95.2791 66.096 94.9671 67.2H107.135C107.015 66 106.439 65.052 105.407 64.356C104.399 63.636 103.019 63.276 101.267 63.276ZM114.542 72.06H118.862C119.126 72.876 119.666 73.548 120.482 74.076C121.322 74.58 122.414 74.832 123.758 74.832C124.67 74.832 125.378 74.748 125.882 74.58C126.386 74.412 126.734 74.172 126.926 73.86C127.118 73.524 127.214 73.152 127.214 72.744C127.214 72.24 127.058 71.856 126.746 71.592C126.434 71.304 125.954 71.076 125.306 70.908C124.658 70.74 123.83 70.584 122.822 70.44C121.814 70.272 120.842 70.068 119.906 69.828C118.97 69.588 118.142 69.276 117.422 68.892C116.702 68.484 116.126 67.98 115.694 67.38C115.286 66.756 115.082 66 115.082 65.112C115.082 64.248 115.286 63.48 115.694 62.808C116.126 62.136 116.714 61.572 117.458 61.116C118.226 60.66 119.114 60.312 120.122 60.072C121.154 59.832 122.258 59.712 123.434 59.712C125.21 59.712 126.686 59.976 127.862 60.504C129.038 61.008 129.914 61.728 130.49 62.664C131.09 63.576 131.39 64.632 131.39 65.832H127.25C127.058 64.944 126.674 64.308 126.098 63.924C125.522 63.516 124.634 63.312 123.434 63.312C122.258 63.312 121.37 63.492 120.77 63.852C120.17 64.212 119.87 64.704 119.87 65.328C119.87 65.832 120.05 66.228 120.41 66.516C120.794 66.78 121.346 66.996 122.066 67.164C122.81 67.332 123.734 67.512 124.838 67.704C125.774 67.896 126.662 68.112 127.502 68.352C128.366 68.592 129.134 68.904 129.806 69.288C130.478 69.648 131.006 70.14 131.39 70.764C131.798 71.364 132.002 72.132 132.002 73.068C132.002 74.22 131.666 75.192 130.994 75.984C130.346 76.776 129.41 77.388 128.186 77.82C126.962 78.228 125.498 78.432 123.794 78.432C122.282 78.432 120.974 78.276 119.87 77.964C118.79 77.628 117.89 77.208 117.17 76.704C116.45 76.176 115.886 75.624 115.478 75.048C115.094 74.448 114.83 73.884 114.686 73.356C114.542 72.828 114.494 72.396 114.542 72.06ZM134.862 72.06H139.182C139.446 72.876 139.986 73.548 140.802 74.076C141.642 74.58 142.734 74.832 144.078 74.832C144.99 74.832 145.698 74.748 146.202 74.58C146.706 74.412 147.054 74.172 147.246 73.86C147.438 73.524 147.534 73.152 147.534 72.744C147.534 72.24 147.378 71.856 147.066 71.592C146.754 71.304 146.274 71.076 145.626 70.908C144.978 70.74 144.15 70.584 143.142 70.44C142.134 70.272 141.162 70.068 140.226 69.828C139.29 69.588 138.462 69.276 137.742 68.892C137.022 68.484 136.446 67.98 136.014 67.38C135.606 66.756 135.402 66 135.402 65.112C135.402 64.248 135.606 63.48 136.014 62.808C136.446 62.136 137.034 61.572 137.778 61.116C138.546 60.66 139.434 60.312 140.442 60.072C141.474 59.832 142.578 59.712 143.754 59.712C145.53 59.712 147.006 59.976 148.182 60.504C149.358 61.008 150.234 61.728 150.81 62.664C151.41 63.576 151.71 64.632 151.71 65.832H147.57C147.378 64.944 146.994 64.308 146.418 63.924C145.842 63.516 144.954 63.312 143.754 63.312C142.578 63.312 141.69 63.492 141.09 63.852C140.49 64.212 140.19 64.704 140.19 65.328C140.19 65.832 140.37 66.228 140.73 66.516C141.114 66.78 141.666 66.996 142.386 67.164C143.13 67.332 144.054 67.512 145.158 67.704C146.094 67.896 146.982 68.112 147.822 68.352C148.686 68.592 149.454 68.904 150.126 69.288C150.798 69.648 151.326 70.14 151.71 70.764C152.118 71.364 152.322 72.132 152.322 73.068C152.322 74.22 151.986 75.192 151.314 75.984C150.666 76.776 149.73 77.388 148.506 77.82C147.282 78.228 145.818 78.432 144.114 78.432C142.602 78.432 141.294 78.276 140.19 77.964C139.11 77.628 138.21 77.208 137.49 76.704C136.77 76.176 136.206 75.624 135.798 75.048C135.414 74.448 135.15 73.884 135.006 73.356C134.862 72.828 134.814 72.396 134.862 72.06ZM161.266 52.26V56.364H155.83V52.26H161.266ZM156.19 60.108H160.87V78H156.19V60.108ZM176.083 78.432C173.827 78.432 171.835 78.072 170.107 77.352C168.403 76.632 167.071 75.588 166.111 74.22C165.151 72.828 164.671 71.124 164.671 69.108C164.671 67.092 165.151 65.388 166.111 63.996C167.071 62.58 168.403 61.512 170.107 60.792C171.835 60.072 173.827 59.712 176.083 59.712C178.339 59.712 180.307 60.072 181.987 60.792C183.691 61.512 185.023 62.58 185.983 63.996C186.943 65.388 187.423 67.092 187.423 69.108C187.423 71.124 186.943 72.828 185.983 74.22C185.023 75.588 183.691 76.632 181.987 77.352C180.307 78.072 178.339 78.432 176.083 78.432ZM176.083 74.832C177.331 74.832 178.447 74.616 179.431 74.184C180.439 73.728 181.231 73.08 181.807 72.24C182.383 71.376 182.671 70.332 182.671 69.108C182.671 67.884 182.383 66.84 181.807 65.976C181.231 65.088 180.451 64.416 179.467 63.96C178.483 63.504 177.355 63.276 176.083 63.276C174.835 63.276 173.707 63.504 172.699 63.96C171.691 64.416 170.887 65.076 170.287 65.94C169.711 66.804 169.423 67.86 169.423 69.108C169.423 70.332 169.711 71.376 170.287 72.24C170.863 73.08 171.655 73.728 172.663 74.184C173.671 74.616 174.811 74.832 176.083 74.832ZM190.883 60.108H195.563V78H190.883V60.108ZM203.879 59.712C204.983 59.712 206.003 59.856 206.939 60.144C207.875 60.432 208.691 60.876 209.387 61.476C210.083 62.076 210.623 62.844 211.007 63.78C211.391 64.692 211.583 65.784 211.583 67.056V78H206.903V67.884C206.903 66.372 206.531 65.268 205.787 64.572C205.067 63.852 203.879 63.492 202.223 63.492C200.975 63.492 199.847 63.732 198.839 64.212C197.831 64.692 197.015 65.304 196.391 66.048C195.767 66.768 195.407 67.524 195.311 68.316L195.275 66.48C195.395 65.64 195.671 64.824 196.103 64.032C196.535 63.24 197.111 62.52 197.831 61.872C198.575 61.2 199.451 60.672 200.459 60.288C201.467 59.904 202.607 59.712 203.879 59.712ZM244.226 75.372L243.506 75.336L247.718 60H250.85L245.342 78H242.642L237.314 62.232H238.034L232.706 78H230.006L224.534 60H227.666L231.806 75.336L231.086 75.372L235.946 60H239.438L244.226 75.372ZM257.492 52.8V56.292H253.748V52.8H257.492ZM254.18 60H257.06V78H254.18V60ZM260.719 60H271.303V62.7H260.719V60ZM264.571 55.32H267.451V78H264.571V55.32ZM287.521 78V66.696C287.521 65.76 287.377 64.992 287.089 64.392C286.801 63.768 286.369 63.3 285.793 62.988C285.217 62.676 284.497 62.52 283.633 62.52C282.649 62.52 281.737 62.772 280.897 63.276C280.057 63.78 279.361 64.476 278.809 65.364C278.281 66.228 277.957 67.236 277.837 68.388L277.801 66.3C277.921 65.292 278.161 64.38 278.521 63.564C278.905 62.748 279.373 62.052 279.925 61.476C280.501 60.876 281.149 60.42 281.869 60.108C282.613 59.796 283.393 59.64 284.209 59.64C285.169 59.64 286.033 59.784 286.801 60.072C287.569 60.36 288.217 60.78 288.745 61.332C289.273 61.884 289.681 62.556 289.969 63.348C290.257 64.116 290.401 64.992 290.401 65.976V78H287.521ZM275.137 78V52.8H278.017V78H275.137ZM318.835 78.396C317.251 78.396 315.895 78.12 314.767 77.568C313.639 76.992 312.727 76.248 312.031 75.336C311.335 74.4 310.819 73.392 310.483 72.312C310.147 71.208 309.979 70.128 309.979 69.072C309.979 67.752 310.135 66.528 310.447 65.4C310.783 64.272 311.299 63.288 311.995 62.448C312.691 61.584 313.603 60.912 314.731 60.432C315.859 59.952 317.227 59.712 318.835 59.712C320.683 59.712 322.315 60.108 323.731 60.9C325.171 61.668 326.299 62.748 327.115 64.14C327.955 65.532 328.375 67.176 328.375 69.072C328.375 70.92 327.955 72.552 327.115 73.968C326.275 75.36 325.135 76.452 323.695 77.244C322.255 78.012 320.635 78.396 318.835 78.396ZM317.323 74.796C318.595 74.796 319.699 74.556 320.635 74.076C321.571 73.596 322.291 72.936 322.795 72.096C323.323 71.232 323.587 70.224 323.587 69.072C323.587 67.344 323.035 65.952 321.931 64.896C320.851 63.84 319.315 63.312 317.323 63.312C315.931 63.312 314.719 63.54 313.687 63.996C312.655 64.452 311.851 65.112 311.275 65.976C310.723 66.816 310.447 67.848 310.447 69.072C310.447 70.2 310.723 71.196 311.275 72.06C311.827 72.924 312.619 73.596 313.651 74.076C314.683 74.556 315.907 74.796 317.323 74.796ZM310.447 52.908V73.392C310.447 74.16 310.411 74.988 310.339 75.876C310.267 76.74 310.195 77.448 310.123 78H305.767V52.908H310.447ZM348.144 72.06H352.68C352.488 73.284 351.972 74.376 351.132 75.336C350.316 76.296 349.2 77.052 347.784 77.604C346.368 78.156 344.64 78.432 342.6 78.432C340.32 78.432 338.304 78.072 336.552 77.352C334.8 76.608 333.432 75.54 332.448 74.148C331.464 72.756 330.972 71.076 330.972 69.108C330.972 67.14 331.452 65.46 332.412 64.068C333.372 62.652 334.704 61.572 336.408 60.828C338.136 60.084 340.152 59.712 342.456 59.712C344.808 59.712 346.764 60.084 348.324 60.828C349.884 61.572 351.036 62.7 351.78 64.212C352.548 65.7 352.872 67.608 352.752 69.936H335.688C335.808 70.848 336.144 71.676 336.696 72.42C337.272 73.164 338.04 73.752 339 74.184C339.984 74.616 341.148 74.832 342.492 74.832C343.98 74.832 345.216 74.58 346.2 74.076C347.208 73.548 347.856 72.876 348.144 72.06ZM342.24 63.276C340.512 63.276 339.108 63.66 338.028 64.428C336.948 65.172 336.252 66.096 335.94 67.2H348.108C347.988 66 347.412 65.052 346.38 64.356C345.372 63.636 343.992 63.276 342.24 63.276ZM353.911 60.108H358.879L366.619 77.28L362.587 78L353.911 60.108ZM375.799 60.108L363.415 85.2H358.555L363.847 75.336L370.795 60.108H375.799ZM388.263 78.432C386.007 78.432 384.015 78.072 382.287 77.352C380.583 76.632 379.251 75.588 378.291 74.22C377.331 72.828 376.851 71.124 376.851 69.108C376.851 67.092 377.331 65.388 378.291 63.996C379.251 62.58 380.583 61.512 382.287 60.792C384.015 60.072 386.007 59.712 388.263 59.712C390.519 59.712 392.487 60.072 394.167 60.792C395.871 61.512 397.203 62.58 398.163 63.996C399.123 65.388 399.603 67.092 399.603 69.108C399.603 71.124 399.123 72.828 398.163 74.22C397.203 75.588 395.871 76.632 394.167 77.352C392.487 78.072 390.519 78.432 388.263 78.432ZM388.263 74.832C389.511 74.832 390.627 74.616 391.611 74.184C392.619 73.728 393.411 73.08 393.987 72.24C394.563 71.376 394.851 70.332 394.851 69.108C394.851 67.884 394.563 66.84 393.987 65.976C393.411 65.088 392.631 64.416 391.647 63.96C390.663 63.504 389.535 63.276 388.263 63.276C387.015 63.276 385.887 63.504 384.879 63.96C383.871 64.416 383.067 65.076 382.467 65.94C381.891 66.804 381.603 67.86 381.603 69.108C381.603 70.332 381.891 71.376 382.467 72.24C383.043 73.08 383.835 73.728 384.843 74.184C385.851 74.616 386.991 74.832 388.263 74.832ZM403.062 60.108H407.742V78H403.062V60.108ZM416.058 59.712C417.162 59.712 418.182 59.856 419.118 60.144C420.054 60.432 420.87 60.876 421.566 61.476C422.262 62.076 422.802 62.844 423.186 63.78C423.57 64.692 423.762 65.784 423.762 67.056V78H419.082V67.884C419.082 66.372 418.71 65.268 417.966 64.572C417.246 63.852 416.058 63.492 414.402 63.492C413.154 63.492 412.026 63.732 411.018 64.212C410.01 64.692 409.194 65.304 408.57 66.048C407.946 66.768 407.586 67.524 407.49 68.316L407.454 66.48C407.574 65.64 407.85 64.824 408.282 64.032C408.714 63.24 409.29 62.52 410.01 61.872C410.754 61.2 411.63 60.672 412.638 60.288C413.646 59.904 414.786 59.712 416.058 59.712ZM436.735 78.396C434.935 78.396 433.303 78.012 431.839 77.244C430.399 76.452 429.259 75.36 428.419 73.968C427.579 72.552 427.159 70.92 427.159 69.072C427.159 67.176 427.567 65.532 428.383 64.14C429.223 62.748 430.363 61.668 431.803 60.9C433.243 60.108 434.887 59.712 436.735 59.712C438.343 59.712 439.711 59.952 440.839 60.432C441.967 60.912 442.879 61.584 443.575 62.448C444.271 63.288 444.775 64.272 445.087 65.4C445.423 66.528 445.591 67.752 445.591 69.072C445.591 70.128 445.423 71.208 445.087 72.312C444.751 73.392 444.235 74.4 443.539 75.336C442.843 76.248 441.931 76.992 440.803 77.568C439.675 78.12 438.319 78.396 436.735 78.396ZM438.247 74.796C439.663 74.796 440.887 74.556 441.919 74.076C442.951 73.596 443.743 72.924 444.295 72.06C444.847 71.196 445.123 70.2 445.123 69.072C445.123 67.848 444.835 66.816 444.259 65.976C443.707 65.112 442.915 64.452 441.883 63.996C440.875 63.54 439.663 63.312 438.247 63.312C436.255 63.312 434.707 63.84 433.603 64.896C432.499 65.952 431.947 67.344 431.947 69.072C431.947 70.224 432.211 71.232 432.739 72.096C433.267 72.936 433.999 73.596 434.935 74.076C435.895 74.556 436.999 74.796 438.247 74.796ZM445.123 52.908H449.803V78H445.447C445.375 77.448 445.303 76.74 445.231 75.876C445.159 74.988 445.123 74.16 445.123 73.392V52.908ZM453.408 54.708H477.96V58.704H453.408V54.708ZM463.308 58.2H468.096V78H463.308V58.2ZM483.599 72.924V68.928H499.007V72.924H483.599ZM477.803 78L488.747 54.708H493.931L504.983 78H499.763L490.187 57.012H492.491L482.987 78H477.803ZM512.51 70.44V66.624H523.166C524.438 66.624 525.446 66.288 526.19 65.616C526.934 64.92 527.306 63.96 527.306 62.736C527.306 61.464 526.934 60.492 526.19 59.82C525.446 59.148 524.438 58.812 523.166 58.812H513.086V78H508.298V54.708H522.734C524.03 54.708 525.242 54.864 526.37 55.176C527.522 55.488 528.518 55.968 529.358 56.616C530.222 57.264 530.894 58.092 531.374 59.1C531.854 60.108 532.094 61.32 532.094 62.736C532.094 64.128 531.854 65.316 531.374 66.3C530.894 67.284 530.222 68.088 529.358 68.712C528.518 69.312 527.522 69.756 526.37 70.044C525.242 70.308 524.03 70.44 522.734 70.44H512.51Z" fill="#000907"/>
</svg>
