<svg width="40" height="40" viewBox="0 0 40 40" fill="none" xmlns="http://www.w3.org/2000/svg">
<rect width="40" height="40" rx="20" fill="#000907"/>
<g clip-path="url(#clip0_376_1535)">
<path d="M20.0013 11.6667C15.3992 11.6667 11.668 15.398 11.668 20.0001C11.668 23.5307 13.8645 26.5459 16.9645 27.7598C16.8916 27.1007 16.8256 26.089 16.9937 25.3695C17.1451 24.7195 17.9707 21.2272 17.9707 21.2272C17.9707 21.2272 17.7214 20.7278 17.7214 19.9903C17.7214 18.8313 18.393 17.9667 19.2291 17.9667C19.9402 17.9667 20.2832 18.5007 20.2832 19.1403C20.2832 19.8557 19.8284 20.9244 19.593 21.9147C19.3965 22.7445 20.009 23.4209 20.827 23.4209C22.3082 23.4209 23.4465 21.8591 23.4465 19.6049C23.4465 17.6098 22.0131 16.2147 19.9659 16.2147C17.5951 16.2147 16.2034 17.9931 16.2034 19.8313C16.2034 20.5473 16.4791 21.3153 16.8235 21.7334C16.8916 21.8161 16.9013 21.8882 16.8812 21.9723C16.818 22.2355 16.6777 22.8015 16.6499 22.9174C16.6138 23.0702 16.5291 23.1022 16.3714 23.0286C15.3305 22.5438 14.6798 21.0223 14.6798 19.8001C14.6798 17.1716 16.5895 14.757 20.1861 14.757C23.077 14.757 25.3236 16.8167 25.3236 19.5702C25.3236 22.4424 23.5124 24.7536 20.9992 24.7536C20.1548 24.7536 19.3611 24.3147 19.0895 23.7966C19.0895 23.7966 18.6715 25.3876 18.5701 25.7778C18.3819 26.5015 17.8742 27.4091 17.5339 27.9626C18.3138 28.2028 19.1423 28.3334 20.0013 28.3334C24.6034 28.3334 28.3346 24.6022 28.3346 20.0001C28.3346 15.398 24.6034 11.6667 20.0013 11.6667Z" fill="white"/>
</g>
<defs>
<clipPath id="clip0_376_1535">
<rect width="20" height="20" fill="white" transform="translate(10 10)"/>
</clipPath>
</defs>
</svg>
