<svg width="40" height="40" viewBox="0 0 40 40" fill="none" xmlns="http://www.w3.org/2000/svg">
<rect width="40" height="40" rx="20" fill="#000907"/>
<g clip-path="url(#clip0_376_1531)">
<path fill-rule="evenodd" clip-rule="evenodd" d="M26.338 26.338H23.67V22.16C23.67 21.165 23.653 19.883 22.283 19.883C20.893 19.883 20.682 20.969 20.682 22.09V26.338H18.014V17.748H20.573V18.922H20.61C20.966 18.247 21.837 17.535 23.136 17.535C25.839 17.535 26.339 19.313 26.339 21.627V26.338H26.338ZM15.005 16.575C14.8017 16.5752 14.6004 16.5353 14.4125 16.4577C14.2246 16.3801 14.0538 16.2663 13.91 16.1227C13.7661 15.9791 13.6519 15.8085 13.5739 15.6208C13.4959 15.433 13.4557 15.2318 13.4555 15.0285C13.4553 14.8252 13.4951 14.6239 13.5728 14.436C13.6504 14.2481 13.7642 14.0773 13.9078 13.9335C14.0514 13.7896 14.222 13.6754 14.4097 13.5974C14.5975 13.5194 14.7987 13.4792 15.002 13.479C15.4125 13.4786 15.8064 13.6413 16.097 13.9313C16.3876 14.2214 16.5511 14.6149 16.5515 15.0255C16.5519 15.436 16.3892 15.8299 16.0992 16.1205C15.8091 16.4111 15.4155 16.5746 15.005 16.575ZM13.668 26.338H16.34V17.748H13.667V26.338H13.668ZM27.668 11H12.328C11.595 11 11 11.581 11 12.298V27.701C11 28.418 11.595 29 12.328 29H27.668C28.402 29 29 28.418 29 27.701V12.298C29 11.581 28.402 11 27.668 11Z" fill="white"/>
</g>
<defs>
<clipPath id="clip0_376_1531">
<rect width="20" height="20" fill="white" transform="translate(10 10)"/>
</clipPath>
</defs>
</svg>
