<svg width="40" height="40" viewBox="0 0 40 40" fill="none" xmlns="http://www.w3.org/2000/svg">
<rect width="40" height="40" rx="20" fill="#000907"/>
<g clip-path="url(#clip0_376_1547)">
<path d="M27.9863 15.1549C27.7946 14.4383 27.2296 13.8733 26.513 13.6816C25.213 13.3333 20.0013 13.3333 20.0013 13.3333C20.0013 13.3333 14.7896 13.3333 13.4896 13.6816C12.773 13.8733 12.208 14.4383 12.0163 15.1549C11.668 16.4549 11.668 19.9999 11.668 19.9999C11.668 19.9999 11.668 23.5449 12.0163 24.8449C12.208 25.5616 12.773 26.1266 13.4896 26.3183C14.7896 26.6666 20.0013 26.6666 20.0013 26.6666C20.0013 26.6666 25.213 26.6666 26.513 26.3183C27.2305 26.1266 27.7946 25.5616 27.9863 24.8449C28.3346 23.5449 28.3346 19.9999 28.3346 19.9999C28.3346 19.9999 28.3346 16.4549 27.9863 15.1549ZM18.3346 22.1649V17.8349C18.3346 17.5141 18.6821 17.3141 18.9596 17.4741L22.7096 19.6391C22.9871 19.7991 22.9871 20.2008 22.7096 20.3608L18.9596 22.5258C18.6821 22.6866 18.3346 22.4858 18.3346 22.1649Z" fill="white"/>
</g>
<defs>
<clipPath id="clip0_376_1547">
<rect width="20" height="20" fill="white" transform="translate(10 10)"/>
</clipPath>
</defs>
</svg>
