<svg width="20" height="20" viewBox="0 0 20 20" fill="none" xmlns="http://www.w3.org/2000/svg">
<g clip-path="url(#clip0_376_1536)">
<path d="M10.0013 1.66675C5.39922 1.66675 1.66797 5.398 1.66797 10.0001C1.66797 13.5307 3.86449 16.5459 6.96449 17.7598C6.89158 17.1007 6.82561 16.089 6.99366 15.3695C7.14505 14.7195 7.97074 11.2272 7.97074 11.2272C7.97074 11.2272 7.72144 10.7278 7.72144 9.99033C7.72144 8.83133 8.39297 7.96675 9.22905 7.96675C9.94022 7.96675 10.2832 8.50075 10.2832 9.14033C10.2832 9.85566 9.82839 10.9244 9.59297 11.9147C9.39647 12.7445 10.009 13.4209 10.827 13.4209C12.3082 13.4209 13.4465 11.8591 13.4465 9.60491C13.4465 7.60981 12.0131 6.21466 9.96589 6.21466C7.59505 6.21466 6.20339 7.99314 6.20339 9.83133C6.20339 10.5473 6.47908 11.3153 6.82353 11.7334C6.89158 11.8161 6.9013 11.8882 6.88116 11.9723C6.81797 12.2355 6.67769 12.8015 6.64991 12.9174C6.6138 13.0702 6.52908 13.1022 6.37144 13.0286C5.33047 12.5438 4.67978 11.0223 4.67978 9.80008C4.67978 7.17161 6.58949 4.75702 10.1861 4.75702C13.077 4.75702 15.3236 6.81675 15.3236 9.57025C15.3236 12.4424 13.5124 14.7536 10.9992 14.7536C10.1548 14.7536 9.36105 14.3147 9.08947 13.7966C9.08947 13.7966 8.67147 15.3876 8.57005 15.7778C8.38189 16.5015 7.87422 17.4091 7.53394 17.9626C8.3138 18.2028 9.1423 18.3334 10.0013 18.3334C14.6034 18.3334 18.3346 14.6022 18.3346 10.0001C18.3346 5.398 14.6034 1.66675 10.0013 1.66675Z" fill="white"/>
</g>
<defs>
<clipPath id="clip0_376_1536">
<rect width="20" height="20" fill="white"/>
</clipPath>
</defs>
</svg>
