<svg width="40" height="40" viewBox="0 0 40 40" fill="none" xmlns="http://www.w3.org/2000/svg">
<rect width="40" height="40" rx="20" fill="#000907"/>
<g clip-path="url(#clip0_376_1539)" filter="url(#filter0_d_376_1539)">
<path fill-rule="evenodd" clip-rule="evenodd" d="M20.2638 11.6667C22.2888 11.6667 22.5838 11.6776 23.4371 11.7167C24.3238 11.7576 24.9296 11.8984 25.4596 12.1042C26.0159 12.3133 26.5198 12.6412 26.9363 13.0651C27.3601 13.4816 27.6881 13.9855 27.8971 14.5417C28.103 15.0717 28.2438 15.6776 28.2846 16.5642C28.3246 17.4534 28.3346 17.7367 28.3346 20.0001V20.0667C28.3346 22.2692 28.3246 22.5559 28.2846 23.4359C28.2438 24.3226 28.103 24.9284 27.8971 25.4584C27.6881 26.0147 27.3601 26.5186 26.9363 26.9351C26.5198 27.3589 26.0159 27.6868 25.4596 27.8959C24.9296 28.1017 24.3238 28.2426 23.4371 28.2834C22.548 28.3234 22.2646 28.3334 20.0013 28.3334H19.9346C17.7321 28.3334 17.4455 28.3234 16.5655 28.2834C15.6788 28.2426 15.073 28.1017 14.543 27.8959C13.9867 27.6868 13.4828 27.3589 13.0663 26.9351C12.6424 26.5186 12.3145 26.0147 12.1055 25.4584C11.8996 24.9284 11.7588 24.3226 11.718 23.4359C11.6788 22.5826 11.668 22.2867 11.668 20.2626V19.7376C11.668 17.7126 11.6788 17.4176 11.718 16.5642C11.7588 15.6776 11.8996 15.0717 12.1055 14.5417C12.3145 13.9855 12.6424 13.4816 13.0663 13.0651C13.4828 12.6412 13.9867 12.3133 14.543 12.1042C15.073 11.8984 15.6788 11.7576 16.5655 11.7167C17.4188 11.6776 17.7146 11.6667 19.7388 11.6667H20.2638ZM20.1963 13.1684H19.8063C17.7596 13.1684 17.4863 13.1776 16.6338 13.2167C15.8213 13.2542 15.3805 13.3892 15.0863 13.5034C14.6971 13.6551 14.4196 13.8351 14.128 14.1267C13.8363 14.4184 13.6563 14.6959 13.5046 15.0851C13.3905 15.3792 13.2546 15.8201 13.218 16.6326C13.1788 17.4851 13.1696 17.7584 13.1696 19.8051V20.1951C13.1696 22.2417 13.1788 22.5151 13.218 23.3676C13.2555 24.1801 13.3905 24.6209 13.5046 24.9151C13.6563 25.3034 13.8371 25.5817 14.128 25.8734C14.4196 26.1651 14.6971 26.3451 15.0863 26.4967C15.3805 26.6109 15.8213 26.7467 16.6338 26.7834C17.5121 26.8234 17.7755 26.8317 20.0013 26.8317H20.068C22.2321 26.8317 22.4988 26.8234 23.368 26.7834C24.1813 26.7459 24.6221 26.6109 24.9163 26.4967C25.3046 26.3451 25.583 26.1651 25.8746 25.8734C26.1663 25.5817 26.3463 25.3042 26.498 24.9151C26.6121 24.6209 26.748 24.1801 26.7846 23.3676C26.8246 22.4884 26.833 22.2259 26.833 20.0001V19.9334C26.833 17.7692 26.8246 17.5026 26.7846 16.6334C26.7471 15.8201 26.6121 15.3792 26.498 15.0851C26.3645 14.7231 26.1515 14.3956 25.8746 14.1267C25.6058 13.85 25.2783 13.637 24.9163 13.5034C24.6221 13.3892 24.1813 13.2534 23.3688 13.2167C22.5163 13.1776 22.243 13.1684 20.1963 13.1684ZM20.0013 15.7209C20.5632 15.7209 21.1197 15.8316 21.6389 16.0466C22.1581 16.2617 22.6298 16.5769 23.0271 16.9743C23.4245 17.3716 23.7397 17.8433 23.9547 18.3625C24.1698 18.8817 24.2805 19.4382 24.2805 20.0001C24.2805 20.562 24.1698 21.1185 23.9547 21.6377C23.7397 22.1568 23.4245 22.6286 23.0271 23.0259C22.6298 23.4232 22.1581 23.7385 21.6389 23.9535C21.1197 24.1686 20.5632 24.2792 20.0013 24.2792C18.8664 24.2792 17.778 23.8284 16.9755 23.0259C16.173 22.2234 15.7221 21.135 15.7221 20.0001C15.7221 18.8652 16.173 17.7768 16.9755 16.9743C17.778 16.1718 18.8664 15.7209 20.0013 15.7209ZM20.0013 17.2226C19.2646 17.2226 18.5582 17.5152 18.0373 18.0361C17.5164 18.557 17.2238 19.2634 17.2238 20.0001C17.2238 20.7367 17.5164 21.4432 18.0373 21.9641C18.5582 22.4849 19.2646 22.7776 20.0013 22.7776C20.738 22.7776 21.4444 22.4849 21.9653 21.9641C22.4861 21.4432 22.7788 20.7367 22.7788 20.0001C22.7788 19.2634 22.4861 18.557 21.9653 18.0361C21.4444 17.5152 20.738 17.2226 20.0013 17.2226ZM24.4496 14.5517C24.7149 14.5517 24.9692 14.6571 25.1567 14.8446C25.3443 15.0322 25.4496 15.2865 25.4496 15.5517C25.4496 15.817 25.3443 16.0713 25.1567 16.2589C24.9692 16.4464 24.7149 16.5517 24.4496 16.5517C24.1844 16.5517 23.9301 16.4464 23.7426 16.2589C23.555 16.0713 23.4496 15.817 23.4496 15.5517C23.4496 15.2865 23.555 15.0322 23.7426 14.8446C23.9301 14.6571 24.1844 14.5517 24.4496 14.5517Z" fill="white"/>
</g>
<defs>
<filter id="filter0_d_376_1539" x="6" y="10" width="28" height="28" filterUnits="userSpaceOnUse" color-interpolation-filters="sRGB">
<feFlood flood-opacity="0" result="BackgroundImageFix"/>
<feColorMatrix in="SourceAlpha" type="matrix" values="0 0 0 0 0 0 0 0 0 0 0 0 0 0 0 0 0 0 127 0" result="hardAlpha"/>
<feOffset dy="4"/>
<feGaussianBlur stdDeviation="2"/>
<feComposite in2="hardAlpha" operator="out"/>
<feColorMatrix type="matrix" values="0 0 0 0 0 0 0 0 0 0 0 0 0 0 0 0 0 0 0.25 0"/>
<feBlend mode="normal" in2="BackgroundImageFix" result="effect1_dropShadow_376_1539"/>
<feBlend mode="normal" in="SourceGraphic" in2="effect1_dropShadow_376_1539" result="shape"/>
</filter>
<clipPath id="clip0_376_1539">
<rect width="20" height="20" fill="white" transform="translate(10 10)"/>
</clipPath>
</defs>
</svg>
